<?xml version="1.0" encoding="UTF-8"?>
<svg width="1150px" height="650px" viewBox="0 0 1150 650" version="1.1" xmlns="http://www.w3.org/2000/svg" xmlns:xlink="http://www.w3.org/1999/xlink">
    <title>画框</title>
    <defs>
        <linearGradient x1="-29.3562456%" y1="21.2115403%" x2="120.741886%" y2="76.2122659%" id="linearGradient-1">
            <stop stop-color="#657DBB" offset="0%"></stop>
            <stop stop-color="#32C5FF" offset="0%"></stop>
            <stop stop-color="#829ED0" offset="33.3525847%"></stop>
            <stop stop-color="#1D4CC1" offset="71.3394552%"></stop>
            <stop stop-color="#4A60B2" offset="100%"></stop>
        </linearGradient>
    </defs>
    <g id="页面-1" stroke="none" stroke-width="1" fill="none" fill-rule="evenodd">
        <g id="iCloud" transform="translate(18, 0)">
            <g id="画框" transform="translate(-18, 0)">
                <g id="path-1-link" fill="#FFFFFF">
                    <polygon id="path-1" points="0 0 1150 0 1150 650 0 650"></polygon>
                </g>
                <g id="iCloud" transform="translate(605, 98)" fill="#0091FF" fill-rule="nonzero">
                    <path d="M8.88208008,172 L8.88208008,77.2578125 L34.6887207,77.2578125 L34.6887207,172 L8.88208008,172 Z M21.7854004,65.1057129 C17.9261882,65.1057129 14.6635335,63.7800293 11.9974365,61.1286621 C9.33133952,58.4772949 7.99829102,55.3251139 7.99829102,51.6721191 C7.99829102,47.9602051 9.33133952,44.7932943 11.9974365,42.1713867 C14.6635335,39.5494792 17.9261882,38.2385254 21.7854004,38.2385254 C25.6740723,38.2385254 28.9440918,39.5494792 31.595459,42.1713867 C34.2468262,44.7932943 35.5725098,47.9602051 35.5725098,51.6721191 C35.5725098,55.3251139 34.2468262,58.4772949 31.595459,61.1286621 C28.9440918,63.7800293 25.6740723,65.1057129 21.7854004,65.1057129 Z" id="形状"></path>
                    <path d="M110.871338,174.209473 C98.4688314,174.209473 87.7160645,171.558105 78.6130371,166.255371 C69.5100098,160.952637 62.4912516,153.374146 57.5567627,143.519897 C52.6222738,133.665649 50.1550293,121.88916 50.1550293,108.19043 L50.1550293,108.102051 C50.1550293,94.4033203 52.6296387,82.6415609 57.5788574,72.8167725 C62.5280762,62.991984 69.5468343,55.4429525 78.6351318,50.1696777 C87.7234294,44.896403 98.4688314,42.2597656 110.871338,42.2597656 C121.21167,42.2597656 130.410441,44.2630208 138.467651,48.2695312 C146.524862,52.2760417 153.005981,57.7776286 157.911011,64.774292 C162.81604,71.7709554 165.66626,79.7913411 166.46167,88.8354492 L166.550049,89.6750488 L140.56665,89.6750488 L140.213135,88.1726074 C139.211507,83.4590658 137.414469,79.3641764 134.822021,75.8879395 C132.229574,72.4117025 128.922729,69.7087809 124.901489,67.7791748 C120.880249,65.8495687 116.203532,64.8847656 110.871338,64.8847656 C104.066162,64.8847656 98.1595052,66.630249 93.1513672,70.1212158 C88.1432292,73.6121826 84.2692871,78.5761312 81.529541,85.0130615 C78.7897949,91.4499919 77.4199219,99.1315918 77.4199219,108.057861 L77.4199219,108.14624 C77.4199219,117.07251 78.7897949,124.790934 81.529541,131.301514 C84.2692871,137.812093 88.157959,142.820231 93.1955566,146.325928 C98.2331543,149.831624 104.139811,151.584473 110.915527,151.584473 C116.041504,151.584473 120.615112,150.641764 124.636353,148.756348 C128.657593,146.870931 132.023356,144.145915 134.733643,140.581299 C137.443929,137.016683 139.358805,132.715576 140.478271,127.677979 L140.655029,126.794189 L166.638428,126.794189 L166.550049,127.722168 C165.754639,136.766276 162.889689,144.786662 157.9552,151.783325 C153.020711,158.779989 146.517497,164.266846 138.445557,168.243896 C130.373617,172.220947 121.18221,174.209473 110.871338,174.209473 Z" id="路径"></path>
                    <polygon id="路径" points="181.486084 172 181.486084 44.4692383 207.292725 44.4692383 207.292725 172"></polygon>
                    <path d="M268.141602,173.944336 C258.56722,173.944336 250.266968,171.977905 243.240845,168.045044 C236.214722,164.112183 230.786784,158.463298 226.957031,151.098389 C223.127279,143.73348 221.212402,134.925049 221.212402,124.673096 L221.212402,124.496338 C221.212402,114.303304 223.156738,105.531698 227.04541,98.1815186 C230.934082,90.8313395 236.391479,85.1824544 243.417603,81.2348633 C250.443726,77.2872721 258.670329,75.3134766 268.097412,75.3134766 C277.583415,75.3134766 285.839478,77.2799072 292.865601,81.2127686 C299.891724,85.1456299 305.349121,90.7797852 309.237793,98.1152344 C313.126465,105.450684 315.070801,114.244385 315.070801,124.496338 L315.070801,124.673096 C315.070801,134.983968 313.14856,143.814494 309.304077,151.164673 C305.459595,158.514852 300.031657,164.149007 293.020264,168.067139 C286.00887,171.98527 277.715983,173.944336 268.141602,173.944336 Z M268.22998,153.705566 C272.442708,153.705566 276.088338,152.57137 279.16687,150.302979 C282.245402,148.034587 284.624268,144.735107 286.303467,140.404541 C287.982666,136.073975 288.822266,130.83016 288.822266,124.673096 L288.822266,124.496338 C288.822266,118.368734 287.967936,113.147013 286.259277,108.831177 C284.550618,104.51534 282.142293,101.223226 279.034302,98.954834 C275.92631,96.6864421 272.28068,95.5522461 268.097412,95.5522461 C263.973063,95.5522461 260.356893,96.693807 257.248901,98.9769287 C254.14091,101.26005 251.732585,104.552165 250.023926,108.853271 C248.315267,113.154378 247.460938,118.368734 247.460938,124.496338 L247.460938,124.673096 C247.460938,130.83016 248.307902,136.073975 250.001831,140.404541 C251.69576,144.735107 254.09672,148.034587 257.204712,150.302979 C260.312703,152.57137 263.987793,153.705566 268.22998,153.705566 Z" id="形状"></path>
                    <path d="M360.585938,173.944336 C353.662923,173.944336 347.763631,172.522909 342.888062,169.680054 C338.012492,166.837199 334.300578,162.757039 331.752319,157.439575 C329.204061,152.122111 327.929932,145.780924 327.929932,138.416016 L327.929932,77.2578125 L353.736572,77.2578125 L353.736572,133.069092 C353.736572,139.255615 355.187459,144.050171 358.089233,147.452759 C360.991007,150.855347 365.343669,152.556641 371.147217,152.556641 C374.034261,152.556641 376.634074,152.055827 378.946655,151.054199 C381.259237,150.052572 383.247762,148.631144 384.912231,146.789917 C386.576701,144.94869 387.843465,142.746582 388.712524,140.183594 C389.581584,137.620605 390.016113,134.79248 390.016113,131.699219 L390.016113,77.2578125 L415.822754,77.2578125 L415.822754,172 L390.016113,172 L390.016113,156.401123 L389.48584,156.401123 C387.86556,159.995199 385.715007,163.110555 383.03418,165.747192 C380.353353,168.38383 377.142253,170.40918 373.400879,171.823242 C369.659505,173.237305 365.387858,173.944336 360.585938,173.944336 Z" id="路径"></path>
                    <path d="M467.701172,173.944336 C459.74707,173.944336 452.882975,171.97054 447.108887,168.022949 C441.334798,164.075358 436.893758,158.419108 433.785767,151.054199 C430.677775,143.68929 429.123779,134.880859 429.123779,124.628906 L429.123779,124.540527 C429.123779,114.259115 430.68514,105.443319 433.807861,98.0931396 C436.930583,90.7429606 441.371623,85.1088053 447.130981,81.1906738 C452.89034,77.2725423 459.73234,75.3134766 467.656982,75.3134766 C472.164307,75.3134766 476.303385,76.0499674 480.074219,77.5229492 C483.845052,78.995931 487.159261,81.1096598 490.016846,83.8641357 C492.87443,86.6186117 495.157552,89.9107259 496.866211,93.7404785 L497.396484,93.7404785 L497.396484,44.4692383 L523.203125,44.4692383 L523.203125,172 L497.396484,172 L497.396484,155.87085 L496.866211,155.87085 C495.187012,159.641683 492.93335,162.867513 490.105225,165.54834 C487.2771,168.229167 483.97762,170.298706 480.206787,171.756958 C476.435954,173.21521 472.267415,173.944336 467.701172,173.944336 Z M476.318115,152.556641 C480.501383,152.556641 484.183838,151.422445 487.365479,149.154053 C490.547119,146.885661 493.021729,143.659831 494.789307,139.476562 C496.556885,135.293294 497.440674,130.358805 497.440674,124.673096 L497.440674,124.584717 C497.440674,118.869548 496.542155,113.927694 494.745117,109.759155 C492.948079,105.590617 490.47347,102.372152 487.321289,100.10376 C484.169108,97.8353678 480.501383,96.7011719 476.318115,96.7011719 C472.046468,96.7011719 468.341919,97.820638 465.204468,100.05957 C462.067017,102.298503 459.643962,105.494873 457.935303,109.648682 C456.226644,113.80249 455.372314,118.766439 455.372314,124.540527 L455.372314,124.628906 C455.372314,130.373535 456.219279,135.337484 457.913208,139.520752 C459.607137,143.70402 462.030192,146.922485 465.182373,149.176147 C468.334554,151.42981 472.046468,152.556641 476.318115,152.556641 Z" id="形状"></path>
                </g>
                <path d="M421.504284,173 C498.013805,173 561.624439,228.290942 574.646667,301.139465 C642.906081,312.307715 695,371.625564 695,443.124752 C695,513.172135 645.000159,571.527844 578.782693,584.370367 C572.779798,586.082851 566.441801,587 559.889841,587 L551.291922,587 L181.581395,587 L144.73317,587 C119.987782,587 98.294391,573.917647 86.176871,554.284403 C49.5590938,525.787464 26,481.267005 26,431.237624 C26,361.926033 71.2189063,303.18817 133.732756,282.980477 C141.517255,234.118036 183.805946,196.774257 234.80661,196.774257 C262.183222,196.774257 287.049542,207.534598 305.416236,225.061305 C333.904199,193.113868 375.358048,173 421.504284,173 Z" id="形状结合" fill="url(#linearGradient-1)"></path>
            </g>
        </g>
    </g>
</svg>