<?xml version="1.0" encoding="UTF-8"?>
<svg width="1150px" height="650px" viewBox="0 0 1150 650" version="1.1" xmlns="http://www.w3.org/2000/svg" xmlns:xlink="http://www.w3.org/1999/xlink">
    <title>Apply-pay</title>
    <g id="Apply-pay" stroke="none" fill="none" fill-rule="evenodd" stroke-width="1">
        <g id="画框" transform="translate(-7, -15)">
            <g id="path-1-link" fill="#FFFFFF">
                <polygon id="path-1" points="0 0 1150 0 1150 650 0 650"></polygon>
            </g>
            <g id="图形" opacity="0.98" transform="translate(74, 32)">
                <path d="M983.361452,3.21637477 L984.392719,3.71530794 C989.943501,6.5435721 994.456428,11.0564985 997.284692,16.6072803 C1000.09317,22.1192344 1000.5,27.0985557 1000.5,48 L1000.5,537 C1000.5,557.901444 1000.09317,562.880766 997.284692,568.39272 C994.456428,573.943501 989.943501,578.456428 984.39272,581.284692 C978.880766,584.093173 973.901444,584.5 953,584.5 L48,584.5 C27.0985557,584.5 22.1192344,584.093173 16.6072803,581.284692 C11.0564985,578.456428 6.5435721,573.943501 3.71530754,568.39272 C0.906826623,562.880766 0.5,557.901444 0.5,537 L0.5,48 C0.5,27.0985557 0.906826623,22.1192344 3.71530754,16.6072803 C6.5435721,11.0564985 11.0564985,6.5435721 16.6072803,3.71530754 C22.1192344,0.906826623 27.0985557,0.5 48,0.5 L953,0.5 C972.595104,0.5 978.196155,0.857562461 983.361452,3.21637477 Z" id="路径" stroke="#FFFFFF"></path>
                <path d="M982.122767,8.17034016 C986.732739,10.5192378 990.480762,14.2672615 992.82966,18.8772328 C995.112162,23.3568964 995.5,28.103802 995.5,48 L995.5,537 C995.5,556.896198 995.112162,561.643104 992.82966,566.122767 C990.480762,570.732739 986.732739,574.480762 982.122767,576.82966 C977.643104,579.112162 972.896198,579.5 953,579.5 L48,579.5 C28.103802,579.5 23.3568964,579.112162 18.8772328,576.82966 C14.2672615,574.480762 10.5192378,570.732739 8.17034016,566.122767 C5.88783751,561.643104 5.5,556.896198 5.5,537 L5.5,48 C5.5,28.103802 5.88783751,23.3568964 8.17034016,18.8772328 C10.5192378,14.2672615 14.2672615,10.5192378 18.8772328,8.17034016 C23.3568964,5.88783751 28.103802,5.5 48,5.5 L953,5.5 C972.896198,5.5 977.643104,5.88783751 982.122767,8.17034016 Z" id="路径" stroke="#000000" stroke-width="11"></path>
                <g id="apple-[#173]" transform="translate(2.5, 0)" fill="#000000">
                    <path d="M11.5708873,3.19296 C12.2999598,2.34797 12.7914012,1.17098 12.6569121,9.09494702e-13 C11.6062792,0.04 10.3352055,0.67099 9.5818643,1.51498 C8.905374,2.26397 8.3148354,3.46095 8.4735932,4.60894 C9.6455696,4.69593 10.8418148,4.03894 11.5708873,3.19296 M14.1989864,10.62485 C14.2283111,13.65181 16.9696641,14.65879 17,14.67179 C16.9777537,14.74279 16.562152,16.10677 15.5560117,17.51675 C14.6853718,18.73474 13.7823735,19.94772 12.3596204,19.97372 C10.9621472,19.99872 10.5121648,19.17973 8.9134635,19.17973 C7.3157735,19.17973 6.8162425,19.94772 5.4935978,19.99872 C4.1203933,20.04772 3.0738052,18.68074 2.197098,17.46676 C0.4032359,14.98379 -0.9669351,10.44985 0.8734421,7.3899 C1.7875635,5.87092 3.4206455,4.90793 5.1942837,4.88393 C6.5422083,4.85893 7.8153044,5.75292 8.6394294,5.75292 C9.4635543,5.75292 11.0106846,4.67793 12.6366882,4.83593 C13.3172232,4.86293 15.2283842,5.09893 16.4549652,6.8199 C16.355868,6.8789 14.1747177,8.09489 14.1989864,10.62485" id="形状"></path>
                </g>
                <g id="apple-[#173]" transform="translate(79, 112)" fill="#000000">
                    <path d="M186.495478,51.4066561 C198.246411,37.802317 206.16729,18.852778 203.999642,0 C187.065912,0.644000001 166.579195,10.802939 154.437107,24.391178 C143.533675,36.449917 134.015582,55.7212951 136.574385,74.2039341 C155.463887,75.6044731 174.744545,65.0269341 186.495478,51.4066561 M228.854251,171.060085 C229.326897,219.794141 273.511057,236.006519 274,236.215819 C273.641442,237.358919 266.94292,259.318997 250.726306,282.019675 C236.69364,301.629314 222.139432,321.158292 199.207999,321.576892 C176.68402,321.979392 169.431362,308.793653 143.664059,308.793653 C117.913055,308.793653 109.861791,321.158292 88.5438706,321.979392 C66.4110451,322.768292 49.5425075,300.759914 35.4120503,281.214836 C6.49921413,241.239019 -15.5847184,168.242585 14.0778317,118.97739 C28.8113178,94.5218121 55.1327571,79.0176731 83.7196315,78.6312731 C105.445004,78.2287731 125.964318,92.6220121 139.247274,92.6220121 C152.530228,92.6220121 177.466328,75.3146731 203.67368,77.8584731 C214.642303,78.2931731 245.445722,82.0927731 265.215321,109.80039 C263.618108,110.75029 228.463097,130.327729 228.854251,171.060085" id="形状"></path>
                </g>
            </g>
            <g id="Pay" transform="translate(489, 140)" fill="#000000" fill-rule="nonzero">
                <path d="M36.9983368,219.644989 L36.9983368,191.270325 L92.7292328,191.270325 C107.399063,191.270325 118.773525,187.480278 126.852619,179.900185 C134.931713,172.320091 138.97126,161.747566 138.97126,148.18261 L138.97126,147.880852 C138.97126,134.216881 134.931713,123.624317 126.852619,116.103161 C118.773525,108.582005 107.399063,104.821426 92.7292328,104.821426 L36.9983368,104.821426 L36.9983368,76.2817383 L101.192596,76.2817383 C115.480515,76.2817383 128.034897,79.2631683 138.855743,85.2260284 C149.67659,91.1888885 158.15292,99.530056 164.284733,110.249531 C170.416546,120.969006 173.482452,133.431053 173.482452,147.635674 L173.482452,147.937431 C173.482452,162.142052 170.416546,174.635532 164.284733,185.417873 C158.15292,196.200214 149.67659,204.600319 138.855743,210.618187 C128.034897,216.636055 115.480515,219.644989 101.192596,219.644989 L36.9983368,219.644989 Z M20.0173874,294 L20.0173874,76.2817383 L53.9250641,76.2817383 L53.9250641,294 L20.0173874,294 Z" id="形状"></path>
                <path d="M233.277833,296.852554 C222.769746,296.852554 213.532735,294.844765 205.5668,290.829185 C197.600865,286.813606 191.39322,281.19376 186.943864,273.969646 C182.494508,266.745533 180.26983,258.396507 180.26983,248.922569 L180.26983,248.649101 C180.26983,239.363762 182.591165,231.369144 187.233834,224.665249 C191.876504,217.961353 198.608689,212.657017 207.43039,208.752239 C216.252092,204.847462 226.906343,202.514732 239.393144,201.754051 L299.306214,198.215469 L299.306214,221.156136 L243.737985,224.612206 C233.996865,225.179573 226.483174,227.500908 221.196912,231.57621 C215.910649,235.651512 213.267518,241.065865 213.267518,247.819267 L213.267518,248.092735 C213.267518,255.045738 215.901612,260.541817 221.169801,264.580971 C226.437989,268.620125 233.458573,270.639702 242.231553,270.639702 C249.871369,270.639702 256.722608,269.070404 262.785268,265.931808 C268.847928,262.793213 273.65405,258.491985 277.203633,253.028126 C280.753217,247.564266 282.528009,241.420273 282.528009,234.596146 L282.528009,187.281464 C282.528009,178.591782 279.798436,171.750366 274.339292,166.757217 C268.880147,161.764069 261.092988,159.267494 250.977815,159.267494 C241.601319,159.267494 234.064447,161.275284 228.367196,165.290863 C222.669946,169.306442 219.140794,174.50312 217.77974,180.880898 L217.477983,182.267097 L186.653894,182.267097 L186.804772,180.55085 C187.626748,171.402245 190.7068,163.183273 196.044927,155.893936 C201.383054,148.604599 208.772584,142.831123 218.213517,138.573509 C227.654451,134.315895 238.869783,132.187088 251.859513,132.187088 C264.803666,132.187088 276.012319,134.350079 285.485471,138.67606 C294.958623,143.002041 302.29786,149.091026 307.503183,156.943016 C312.708505,164.795006 315.311166,174.024551 315.311166,184.631653 L315.311166,294 L282.528009,294 L282.528009,269.027184 L281.813691,269.027184 C278.778825,274.667854 274.797429,279.574955 269.869504,283.748486 C264.941579,287.922016 259.375562,291.14941 253.171453,293.430668 C246.967343,295.711926 240.336137,296.852554 233.277833,296.852554 Z" id="路径"></path>
                <path d="M365.347599,346.972641 C362.187,346.972641 359.056656,346.819405 355.956566,346.512932 C352.856476,346.206459 350.28564,345.87484 348.24406,345.518074 L348.24406,319.944099 C349.517101,320.181419 351.076576,320.423847 352.922485,320.671383 C354.768394,320.918919 356.800152,321.042686 359.017757,321.042686 C366.72044,321.042686 372.853824,319.717781 377.417911,317.06797 C381.981998,314.418159 385.602306,309.294563 388.278835,301.697182 L390.975796,294.122589 L333.151455,135.315468 L368.657505,135.315468 L410.710285,271.486038 L405.045254,264.427734 L413.030048,264.427734 L407.336727,271.486038 L449.486164,135.315468 L484.013859,135.315468 L424.88583,301.289337 C420.980266,312.243774 416.391426,321.073727 411.119308,327.779194 C405.847191,334.484661 399.499275,339.359936 392.075561,342.405018 C384.651848,345.4501 375.742527,346.972641 365.347599,346.972641 Z" id="路径"></path>
            </g>
        </g>
    </g>
</svg>